<svg xmlns="http://www.w3.org/2000/svg" width="26.073" height="26.073" viewBox="0 0 26.073 26.073">
  <path id="Icon_metro-facebook" data-name="Icon metro-facebook" d="M24.3,1.928H6.916A4.346,4.346,0,0,0,2.571,6.274V23.655A4.345,4.345,0,0,0,6.916,28h8.692V16.594H12.348V13.335h3.259V10.891a4.074,4.074,0,0,1,4.074-4.074h4.074v3.259H19.681a.815.815,0,0,0-.815.815v2.444h4.481l-.815,3.259H18.866V28H24.3a4.346,4.346,0,0,0,4.345-4.346V6.274A4.346,4.346,0,0,0,24.3,1.928Z" transform="translate(-2.571 -1.928)" fill="#333"/>
</svg>
