<svg xmlns="http://www.w3.org/2000/svg" width="25.719" height="20" viewBox="0 0 25.719 20">
  <path id="Icon_awesome-home" data-name="Icon awesome-home" d="M12.518,7.442l-8.232,6.78v7.317A.714.714,0,0,0,5,22.254l5-.013a.714.714,0,0,0,.711-.714V17.253a.714.714,0,0,1,.714-.714h2.857a.714.714,0,0,1,.714.714v4.27a.714.714,0,0,0,.714.717l5,.014a.714.714,0,0,0,.714-.714V14.217L13.2,7.442A.544.544,0,0,0,12.518,7.442Zm13,4.608L21.788,8.973V2.789a.536.536,0,0,0-.536-.536h-2.5a.536.536,0,0,0-.536.536V6.031l-4-3.289a2.143,2.143,0,0,0-2.724,0L.193,12.05a.536.536,0,0,0-.071.755L1.26,14.189a.536.536,0,0,0,.755.073l10.5-8.65a.544.544,0,0,1,.683,0l10.5,8.65a.536.536,0,0,0,.755-.071L25.6,12.806a.536.536,0,0,0-.076-.756Z" transform="translate(0.001 -2.254)" fill="#c3c3c3"/>
</svg>
