<svg xmlns="http://www.w3.org/2000/svg" width="26.073" height="26.067" viewBox="0 0 26.073 26.067">
  <path id="Icon_awesome-instagram" data-name="Icon awesome-instagram" d="M13.034,8.588a6.683,6.683,0,1,0,6.683,6.683A6.673,6.673,0,0,0,13.034,8.588Zm0,11.028a4.345,4.345,0,1,1,4.345-4.345,4.353,4.353,0,0,1-4.345,4.345Zm8.516-11.3a1.559,1.559,0,1,1-1.559-1.559A1.555,1.555,0,0,1,21.55,8.315ZM25.976,9.9a7.714,7.714,0,0,0-2.106-5.462,7.765,7.765,0,0,0-5.462-2.106c-2.152-.122-8.6-.122-10.755,0a7.754,7.754,0,0,0-5.462,2.1A7.74,7.74,0,0,0,.086,9.891c-.122,2.152-.122,8.6,0,10.755a7.714,7.714,0,0,0,2.106,5.462,7.775,7.775,0,0,0,5.462,2.106c2.152.122,8.6.122,10.755,0a7.714,7.714,0,0,0,5.462-2.106,7.765,7.765,0,0,0,2.106-5.462c.122-2.152.122-8.6,0-10.749ZM23.2,22.955a4.4,4.4,0,0,1-2.478,2.478c-1.716.681-5.788.523-7.684.523s-5.974.151-7.684-.523a4.4,4.4,0,0,1-2.478-2.478c-.681-1.716-.523-5.788-.523-7.684S2.2,9.3,2.873,7.588A4.4,4.4,0,0,1,5.35,5.11c1.716-.681,5.788-.523,7.684-.523s5.974-.151,7.684.523A4.4,4.4,0,0,1,23.2,7.588c.681,1.716.524,5.788.524,7.684S23.876,21.245,23.2,22.955Z" transform="translate(0.005 -2.238)" fill="#333"/>
</svg>
