<svg xmlns="http://www.w3.org/2000/svg" width="63" height="63" viewBox="0 0 63 63">
  <g id="Group_635" data-name="Group 635" transform="translate(7395 -4530)">
    <circle id="Ellipse_93" data-name="Ellipse 93" cx="31.5" cy="31.5" r="31.5" transform="translate(-7395 4530)" fill="#1f5b87"/>
    <path id="Icon_awesome-thumbs-up" data-name="Icon awesome-thumbs-up" d="M6.3,13.563H1.453A1.453,1.453,0,0,0,0,15.016V29.547A1.453,1.453,0,0,0,1.453,31H6.3A1.453,1.453,0,0,0,7.75,29.547V15.016A1.453,1.453,0,0,0,6.3,13.563ZM3.875,28.578a1.453,1.453,0,1,1,1.453-1.453A1.453,1.453,0,0,1,3.875,28.578ZM23.25,4.932c0,2.568-1.572,4.009-2.015,5.725h6.159A3.618,3.618,0,0,1,31,14.174a4.384,4.384,0,0,1-1.177,2.979l-.007.007a5.058,5.058,0,0,1-.564,4.812,4.788,4.788,0,0,1-.992,4.526,3.214,3.214,0,0,1-.372,2.7C26.653,30.975,23.59,31,21,31h-.172a17.381,17.381,0,0,1-7.239-1.921A9.529,9.529,0,0,0,10.4,28.1a.727.727,0,0,1-.713-.726V14.43a.726.726,0,0,1,.215-.516c2.4-2.37,3.43-4.879,5.4-6.849A7.333,7.333,0,0,0,16.836,3.5c.269-1.12.832-3.5,2.054-3.5C20.344,0,23.25.484,23.25,4.932Z" transform="translate(-7379 4545)" fill="#fff"/>
  </g>
</svg>
