<svg xmlns="http://www.w3.org/2000/svg" width="24.44" height="24.44" viewBox="0 0 24.44 24.44">
  <path id="Icon_material-insert-emoticon" data-name="Icon material-insert-emoticon" d="M15.208,3A12.22,12.22,0,1,0,27.44,15.22,12.214,12.214,0,0,0,15.208,3Zm.012,22A9.776,9.776,0,1,1,25,15.22,9.773,9.773,0,0,1,15.22,25ZM19.5,14a1.833,1.833,0,1,0-1.833-1.833A1.831,1.831,0,0,0,19.5,14Zm-8.554,0A1.833,1.833,0,1,0,9.11,12.165,1.831,1.831,0,0,0,10.943,14Zm4.277,7.943a6.716,6.716,0,0,0,6.244-4.277H8.976A6.716,6.716,0,0,0,15.22,21.941Z" transform="translate(-3 -3)" fill="#c4c4c4"/>
</svg>
