<svg xmlns="http://www.w3.org/2000/svg" width="24.994" height="21.87" viewBox="0 0 24.994 21.87">
  <path id="Icon_metro-image" data-name="Icon metro-image" d="M26,5.418l0,0v18.74l0,0H4.136l0,0V5.421l0,0Zm0-1.562H4.133A1.567,1.567,0,0,0,2.571,5.418V24.163a1.567,1.567,0,0,0,1.562,1.562H26a1.567,1.567,0,0,0,1.562-1.562V5.418A1.567,1.567,0,0,0,26,3.856ZM22.878,9.323A2.343,2.343,0,1,1,20.535,6.98a2.343,2.343,0,0,1,2.343,2.343ZM24.44,22.6H5.695V19.477L11.162,10.1l6.248,7.811h1.562l5.467-4.686Z" transform="translate(-2.571 -3.856)" fill="#c4c4c4"/>
</svg>
