<svg xmlns="http://www.w3.org/2000/svg" width="31.812" height="31.812" viewBox="0 0 31.812 31.812">
  <g id="Group_474" data-name="Group 474" transform="translate(-1650 -29)">
    <path id="Icon_feather-message-circle" data-name="Icon feather-message-circle" d="M36.312,19.522a14.81,14.81,0,0,1-1.591,6.716A15.022,15.022,0,0,1,21.29,34.545a14.81,14.81,0,0,1-6.716-1.591L4.5,36.312,7.858,26.238a14.81,14.81,0,0,1-1.591-6.716A15.022,15.022,0,0,1,14.574,6.091,14.81,14.81,0,0,1,21.29,4.5h.884A14.987,14.987,0,0,1,36.312,18.639Z" transform="translate(1645.5 24.5)" fill="#c3c3c3"/>
    <ellipse id="Ellipse_59" data-name="Ellipse 59" cx="1.5" cy="2" rx="1.5" ry="2" transform="translate(1659.812 42.812)" fill="#fff"/>
    <ellipse id="Ellipse_60" data-name="Ellipse 60" cx="1.5" cy="2" rx="1.5" ry="2" transform="translate(1665.812 42.812)" fill="#fff"/>
    <circle id="Ellipse_61" data-name="Ellipse 61" cx="2" cy="2" r="2" transform="translate(1670.812 42.812)" fill="#fff"/>
  </g>
</svg>
