<svg xmlns="http://www.w3.org/2000/svg" width="31.111" height="20" viewBox="0 0 31.111 20">
  <path id="Icon_ionic-md-people" data-name="Icon ionic-md-people" d="M23.462,16.208a4.167,4.167,0,1,0-4.242-4.167A4.218,4.218,0,0,0,23.462,16.208Zm-11.313,0a4.167,4.167,0,1,0-4.243-4.167A4.218,4.218,0,0,0,12.149,16.208Zm0,3.056c-3.323,0-9.9,1.6-9.9,4.861v3.75h20v-3.75C22.25,20.861,15.472,19.264,12.149,19.264Zm11.313.764a7.547,7.547,0,0,0-1.212.069c1.627,1.181,2.222,1.944,2.222,4.028v3.75h8.889v-3.75C33.361,20.861,26.786,20.028,23.462,20.028Z" transform="translate(-2.25 -7.875)" fill="#c3c3c3"/>
</svg>
