<svg xmlns="http://www.w3.org/2000/svg" width="29.762" height="23.5" viewBox="0 0 29.762 23.5">
  <g id="Group_592" data-name="Group 592" transform="translate(-101.119 -13)">
    <path id="Icon_awesome-hand-holding" data-name="Icon awesome-hand-holding" d="M29.208,22.919a1.71,1.71,0,0,0-2.2,0l-4.774,3.818a3.289,3.289,0,0,1-2.067.723H14.054a.827.827,0,0,1,0-1.653H18.1a1.72,1.72,0,0,0,1.721-1.374A1.655,1.655,0,0,0,18.187,22.5H9.92a6.081,6.081,0,0,0-3.829,1.359l-2.4,1.948H.827A.829.829,0,0,0,0,26.633v4.96a.829.829,0,0,0,.827.827H19.262a3.311,3.311,0,0,0,2.067-.723l7.812-6.252A1.653,1.653,0,0,0,29.208,22.919Z" transform="translate(101.119 4.08)" fill="#c3c3c3"/>
    <text id="NGO" transform="translate(109 22)" fill="#c3c3c3" font-size="9" font-family="Poppins-Regular, Poppins"><tspan x="0" y="0">NGO</tspan></text>
  </g>
</svg>
