<svg xmlns="http://www.w3.org/2000/svg" width="18.389" height="23" viewBox="0 0 18.389 23">
  <g id="Icon_ionic-ios-notifications" data-name="Icon ionic-ios-notifications" transform="translate(0)">
    <path id="Path_351" data-name="Path 351" d="M17.993,32.062c2.187,0,3.382-1.547,3.382-3.727H14.6C14.6,30.516,15.8,32.062,17.993,32.062Z" transform="translate(-8.808 -9.062)" fill="rgba(112,112,112,0.42)"/>
    <path id="Path_352" data-name="Path 352" d="M24.917,20.129c-.885-1.11-2.627-1.76-2.627-6.73,0-5.1-2.368-7.151-4.576-7.643-.207-.049-.356-.115-.356-.323V5.275a1.4,1.4,0,0,0-2.805,0v.159c0,.2-.149.273-.356.323C11.983,6.254,9.62,8.3,9.62,13.4c0,4.97-1.742,5.615-2.627,6.73a1.083,1.083,0,0,0,.914,1.739h16.1A1.082,1.082,0,0,0,24.917,20.129Z" transform="translate(-6.761 -3.93)" fill="rgba(112,112,112,0.42)"/>
  </g>
</svg>
