<svg xmlns="http://www.w3.org/2000/svg" width="25.004" height="25" viewBox="0 0 25.004 25">
  <path id="Icon_ionic-ios-share-alt" data-name="Icon ionic-ios-share-alt" d="M27.3,16.411l-8.45-9.488a.4.4,0,0,0-.335-.173.63.63,0,0,0-.6.575v4.758a.294.294,0,0,1-.216.295C9.3,13.924,5.758,21.471,4.506,29.306c-.048.309.3.6.461.352,3.066-4.636,6.8-7.662,12.7-7.72.132,0,.252.187.252.345v4.672a.5.5,0,0,0,.868.381l8.51-9.653a.879.879,0,0,0,.21-.6A1.084,1.084,0,0,0,27.3,16.411Z" transform="translate(-3.498 -5.749)" fill="none" stroke="#919191" stroke-width="2"/>
</svg>
