<?xml version="1.0" encoding="UTF-8"?>
<svg id="Layer_1" data-name="Layer 1" xmlns="http://www.w3.org/2000/svg" viewBox="0 0 537.049 97.481">
  <path d="M39.116,97.481c-7.496,0-14.195-1.718-20.097-5.159-5.905-3.438-10.549-8.186-13.937-14.245-3.388-6.056-5.082-13.037-5.082-20.943s1.694-14.886,5.082-20.944c3.388-6.057,8.032-10.78,13.937-14.168,5.902-3.388,12.602-5.082,20.097-5.082,5.749,0,11.112,1.078,16.093,3.234,4.979,2.155,9.163,5.39,12.551,9.702l-2.156,2.31c-3.08-4.209-6.93-7.315-11.55-9.317s-9.601-3.003-14.938-3.003c-6.879,0-13.04,1.566-18.48,4.697-5.443,3.133-9.729,7.495-12.859,13.09-3.133,5.597-4.697,12.089-4.697,19.481s1.564,13.886,4.697,19.48c3.131,5.598,7.417,9.986,12.859,13.167,5.44,3.184,11.601,4.774,18.48,4.774,5.337,0,10.318-1.025,14.938-3.08,0,0,2.857-1.311,5.638-3.297,10.564-7.541,19.011-28.388,19.843-30.479,.667,.667,1.333,1.333,2,2-.916,2.495-8.567,22.868-20.021,30.933-3.091,2.176-6.305,3.614-6.305,3.614-4.981,2.156-10.344,3.234-16.093,3.234Z" style="fill: #063a54;"/>
  <path d="M117.964,97.481c-7.392,0-13.99-1.718-19.789-5.159-5.802-3.438-10.395-8.212-13.783-14.321-3.388-6.107-5.082-13.064-5.082-20.867,0-7.905,1.694-14.861,5.082-20.867s7.981-10.728,13.783-14.168c5.799-3.438,12.397-5.159,19.789-5.159s14.014,1.721,19.866,5.159c5.852,3.44,10.446,8.162,13.783,14.168,3.335,6.006,5.005,12.962,5.005,20.867,0,7.803-1.67,14.76-5.005,20.867-3.337,6.109-7.931,10.883-13.783,14.321-5.852,3.441-12.474,5.159-19.866,5.159Zm0-2.926c6.776,0,12.859-1.591,18.249-4.774,5.39-3.181,9.625-7.597,12.705-13.244,3.08-5.645,4.62-12.112,4.62-19.403,0-7.393-1.54-13.885-4.62-19.481-3.08-5.595-7.315-9.957-12.705-13.09-5.39-3.131-11.473-4.697-18.249-4.697s-12.835,1.566-18.172,4.697c-5.339,3.133-9.574,7.495-12.705,13.09-3.133,5.597-4.697,12.089-4.697,19.481,0,7.291,1.564,13.759,4.697,19.403,3.131,5.647,7.366,10.063,12.705,13.244,5.337,3.184,11.396,4.774,18.172,4.774Z" style="fill: #d9b233;"/>
  <path d="M202.52,16.939c6.569,0,12.216,1.259,16.94,3.773,4.721,2.517,8.393,6.236,11.011,11.165,2.618,4.928,3.927,10.986,3.927,18.172v46.97h-3.08V50.05c0-9.856-2.517-17.35-7.546-22.484-5.031-5.133-12.065-7.7-21.098-7.7-6.983,0-12.989,1.413-18.018,4.235-5.032,2.825-8.882,6.776-11.55,11.858-2.671,5.082-4.004,11.011-4.004,17.786v43.274h-3.08V17.401h3.08v22.638l-.308-.462c2.361-6.98,6.415-12.498,12.166-16.555,5.749-4.055,12.936-6.083,21.56-6.083Z"/>
  <path d="M284.771,16.939c6.569,0,12.216,1.259,16.94,3.773,4.721,2.517,8.393,6.236,11.011,11.165,2.618,4.928,3.927,10.986,3.927,18.172v46.97h-3.08V50.05c0-9.856-2.517-17.35-7.546-22.484-5.031-5.133-12.065-7.7-21.098-7.7-6.983,0-12.989,1.413-18.018,4.235-5.032,2.825-8.882,6.776-11.55,11.858-2.671,5.082-4.004,11.011-4.004,17.786v43.274h-3.08V17.401h3.08v22.638l-.308-.462c2.361-6.98,6.415-12.498,12.166-16.555,5.749-4.055,12.936-6.083,21.56-6.083Z"/>
  <path d="M362.863,97.481c-7.7,0-14.529-1.718-20.482-5.159-5.956-3.438-10.652-8.212-14.091-14.321-3.441-6.107-5.159-13.064-5.159-20.867,0-7.905,1.591-14.861,4.774-20.867,3.181-6.006,7.57-10.728,13.167-14.168,5.595-3.438,11.882-5.159,18.865-5.159s13.268,1.67,18.865,5.005c5.595,3.338,10.01,7.984,13.244,13.938,3.234,5.955,4.851,12.781,4.851,20.481v.771h-72.072v-2.926h70.378l-1.232,2.31c0-6.98-1.489-13.244-4.466-18.788-2.979-5.544-7.007-9.906-12.089-13.09-5.082-3.182-10.91-4.774-17.479-4.774-6.468,0-12.27,1.593-17.402,4.774-5.135,3.184-9.163,7.546-12.089,13.09-2.926,5.544-4.389,11.808-4.389,18.788v.616c0,7.291,1.59,13.759,4.774,19.403,3.181,5.647,7.546,10.063,13.09,13.244,5.544,3.184,11.858,4.774,18.942,4.774,5.337,0,10.395-1.025,15.169-3.08,4.774-2.053,8.752-5.133,11.935-9.24l2.156,2.156c-3.492,4.312-7.804,7.572-12.936,9.779-5.135,2.209-10.576,3.311-16.324,3.311Z"/>
  <path d="M441.024,97.481c-7.496,0-14.195-1.718-20.097-5.159-5.905-3.438-10.549-8.186-13.937-14.245-3.388-6.056-5.082-13.037-5.082-20.943s1.694-14.886,5.082-20.944c3.388-6.057,8.032-10.78,13.937-14.168,5.902-3.388,12.602-5.082,20.097-5.082,5.749,0,11.112,1.078,16.093,3.234,4.979,2.155,9.163,5.39,12.551,9.702l-2.156,2.31c-3.08-4.209-6.93-7.315-11.55-9.317s-9.601-3.003-14.938-3.003c-6.879,0-13.04,1.566-18.48,4.697-5.443,3.133-9.729,7.495-12.859,13.09-3.133,5.597-4.697,12.089-4.697,19.481s1.564,13.886,4.697,19.48c3.131,5.598,7.417,9.986,12.859,13.167,5.44,3.184,11.601,4.774,18.48,4.774,5.337,0,10.318-1.025,14.938-3.08,4.62-2.053,8.47-5.133,11.55-9.24l2.156,2.311c-3.388,4.312-7.573,7.546-12.551,9.701-4.981,2.156-10.344,3.234-16.093,3.234Z"/>
  <path d="M470.443,20.327v-2.926h45.43v2.926h-45.43Zm34.65,77.154c-6.263,0-11.038-1.795-14.322-5.39-3.287-3.593-4.928-8.316-4.928-14.168V0h3.08V77.153c0,5.647,1.386,9.96,4.158,12.937,2.772,2.979,6.826,4.466,12.166,4.466s9.752-1.642,13.244-4.928l2.156,2.155c-1.848,1.952-4.185,3.389-7.007,4.312-2.825,.924-5.674,1.386-8.547,1.386Z"/>
  <path d="M533.045,96.481c-1.027,0-1.951-.411-2.771-1.231-.823-.821-1.232-1.745-1.232-2.772,0-1.129,.409-2.079,1.232-2.849,.82-.771,1.744-1.155,2.771-1.155,1.129,0,2.079,.385,2.85,1.155s1.154,1.72,1.154,2.849c0,1.027-.385,1.951-1.154,2.772-.771,.82-1.721,1.231-2.85,1.231Z"/>
</svg>