<?xml version="1.0" encoding="UTF-8"?>
<svg id="Layer_1" data-name="Layer 1" xmlns="http://www.w3.org/2000/svg" viewBox="0 0 591.979 100.531">
  <path d="M88.798,100.531c-7.804,0-14.76-1.745-20.867-5.236-6.109-3.489-10.934-8.315-14.476-14.476s-5.313-13.191-5.313-21.099c0-8.008,1.771-15.092,5.313-21.252s8.367-10.958,14.476-14.398c6.107-3.438,13.063-5.159,20.867-5.159,6.468,0,12.344,1.231,17.633,3.696,5.287,2.464,9.572,6.159,12.859,11.088l-5.698,4.158c-2.875-4.105-6.468-7.135-10.78-9.087-4.312-1.948-8.985-2.926-14.014-2.926-6.264,0-11.885,1.413-16.863,4.235-4.981,2.825-8.881,6.775-11.704,11.857-2.825,5.082-4.235,11.012-4.235,17.787s1.41,12.705,4.235,17.787c2.823,5.082,6.723,9.036,11.704,11.858,4.979,2.825,10.6,4.234,16.863,4.234,7.183,0,12.459-2.232,14.014-2.926,4.76-2.124,8.955-5.353,14.188-11.675,9.074-10.961,14.625-23.183,18-33,1,4.333,2,8.667,3,13-1.122,2.651-2.74,6.115-5,10-4.659,8.008-9.426,13.301-11,15-5.324,5.745-9.044,9.795-15.569,12.835-7.739,3.606-14.67,3.696-17.633,3.696ZM0,0" style="fill: #063a54;"/>
  <path d="M172.421,100.531c-7.7,0-14.553-1.745-20.559-5.236-6.006-3.489-10.78-8.315-14.322-14.476s-5.313-13.191-5.313-21.099c0-8.008,1.771-15.065,5.313-21.175,3.542-6.106,8.316-10.907,14.322-14.398,6.006-3.489,12.859-5.236,20.559-5.236s14.577,1.747,20.636,5.236c6.057,3.491,10.831,8.292,14.322,14.398,3.489,6.109,5.236,13.167,5.236,21.175,0,7.907-1.747,14.938-5.236,21.099-3.492,6.16-8.266,10.986-14.322,14.476-6.059,3.491-12.936,5.236-20.636,5.236Zm0-6.931c6.16,0,11.704-1.409,16.632-4.234,4.928-2.822,8.778-6.8,11.55-11.936,2.772-5.132,4.158-11.035,4.158-17.71,0-6.775-1.386-12.705-4.158-17.787s-6.622-9.032-11.55-11.857c-4.928-2.822-10.472-4.235-16.632-4.235s-11.68,1.413-16.555,4.235c-4.877,2.825-8.728,6.775-11.55,11.857-2.825,5.082-4.235,11.012-4.235,17.787,0,6.675,1.41,12.578,4.235,17.71,2.823,5.136,6.673,9.113,11.55,11.936,4.875,2.825,10.395,4.234,16.555,4.234Z" style="fill: #d9b233;"/>
  <path d="M258.754,18.911c6.569,0,12.293,1.259,17.171,3.772,4.875,2.518,8.674,6.314,11.396,11.396,2.719,5.082,4.081,11.372,4.081,18.865v46.97h-7.7V53.562c0-9.033-2.286-15.913-6.853-20.637-4.569-4.721-10.96-7.084-19.173-7.084-6.264,0-11.704,1.285-16.324,3.851-4.62,2.567-8.138,6.159-10.549,10.779-2.414,4.62-3.619,10.164-3.619,16.633v42.812h-7.7V19.527h7.392v22.33l-1.078-2.465c2.464-6.364,6.519-11.369,12.166-15.015,5.645-3.643,12.575-5.467,20.79-5.467Z"/>
  <path d="M339.394,18.911c6.569,0,12.293,1.259,17.171,3.772,4.875,2.518,8.674,6.314,11.396,11.396,2.719,5.082,4.081,11.372,4.081,18.865v46.97h-7.7V53.562c0-9.033-2.286-15.913-6.853-20.637-4.569-4.721-10.96-7.084-19.173-7.084-6.264,0-11.704,1.285-16.324,3.851-4.62,2.567-8.138,6.159-10.549,10.779-2.414,4.62-3.619,10.164-3.619,16.633v42.812h-7.7V19.527h7.392v22.33l-1.078-2.465c2.464-6.364,6.519-11.369,12.166-15.015,5.645-3.643,12.575-5.467,20.79-5.467Z"/>
  <path d="M420.413,100.531c-8.112,0-15.272-1.745-21.483-5.236-6.213-3.489-11.088-8.315-14.63-14.476s-5.313-13.191-5.313-21.099c0-8.008,1.667-15.065,5.005-21.175,3.335-6.106,7.931-10.907,13.783-14.398,5.852-3.489,12.421-5.236,19.712-5.236s13.833,1.694,19.635,5.082c5.799,3.388,10.368,8.138,13.706,14.245,3.335,6.109,5.005,13.167,5.005,21.175,0,.308-.026,.643-.077,1.001-.053,.361-.077,.746-.077,1.155h-70.994v-6.006h66.836l-3.08,2.926c.101-6.262-1.208-11.882-3.927-16.863-2.722-4.979-6.391-8.879-11.011-11.704-4.62-2.822-9.959-4.234-16.016-4.234-5.956,0-11.269,1.412-15.939,4.234-4.673,2.825-8.342,6.726-11.011,11.704-2.671,4.981-4.004,10.652-4.004,17.017v1.387c0,6.571,1.463,12.396,4.389,17.479,2.926,5.082,6.954,9.036,12.089,11.858,5.133,2.825,10.985,4.234,17.556,4.234,5.132,0,9.933-.924,14.399-2.771,4.466-1.848,8.239-4.671,11.319-8.47l4.466,5.082c-3.492,4.312-7.88,7.572-13.167,9.778-5.289,2.209-11.011,3.312-17.171,3.312Z"/>
  <path d="M503.578,100.531c-7.804,0-14.76-1.745-20.867-5.236-6.109-3.489-10.934-8.315-14.476-14.476s-5.313-13.191-5.313-21.099c0-8.008,1.771-15.092,5.313-21.252s8.367-10.958,14.476-14.398c6.107-3.438,13.063-5.159,20.867-5.159,6.468,0,12.344,1.231,17.633,3.696,5.286,2.464,9.572,6.159,12.859,11.088l-5.698,4.158c-2.876-4.105-6.468-7.135-10.78-9.087-4.312-1.948-8.984-2.926-14.014-2.926-6.264,0-11.885,1.413-16.863,4.235-4.981,2.825-8.881,6.775-11.704,11.857-2.825,5.082-4.235,11.012-4.235,17.787s1.41,12.705,4.235,17.787c2.823,5.082,6.723,9.036,11.704,11.858,4.979,2.825,10.6,4.234,16.863,4.234,5.029,0,9.702-.974,14.014-2.926,4.312-1.949,7.904-4.979,10.78-9.086l5.698,4.158c-3.287,4.928-7.573,8.624-12.859,11.088-5.289,2.464-11.165,3.696-17.633,3.696Z"/>
  <path d="M538.849,26.149v-6.622h48.048v6.622h-48.048Zm36.652,74.382c-7.084,0-12.501-1.949-16.247-5.853-3.749-3.9-5.621-9.239-5.621-16.016V1.971h7.7V77.893c0,5.136,1.282,9.087,3.85,11.858,2.565,2.772,6.261,4.158,11.088,4.158,5.029,0,9.188-1.487,12.474-4.466l3.234,5.39c-2.055,1.951-4.543,3.388-7.469,4.312-2.926,.924-5.93,1.386-9.009,1.386Z"/>
</svg>